<mxfile host="app.diagrams.net" modified="2021-01-15T03:45:44.699Z" agent="5.0 (Macintosh; Intel Mac OS X 10_15_6) AppleWebKit/537.36 (KHTML, like Gecko) Chrome/87.0.4280.88 Safari/537.36" etag="bPH8AlyGPqH89u-bJvSX" version="14.1.9" type="github">
  <diagram id="p8HPg3vbl-VkapSL3GHT" name="Page-1">
    <mxGraphModel dx="2228" dy="741" grid="1" gridSize="10" guides="1" tooltips="1" connect="1" arrows="1" fold="1" page="1" pageScale="1" pageWidth="827" pageHeight="1169" math="0" shadow="0">
      <root>
        <mxCell id="0" />
        <mxCell id="1" parent="0" />
        <mxCell id="yp2vRg8m_nEioMY8WrKE-5" value="" style="rounded=1;whiteSpace=wrap;html=1;" parent="1" vertex="1">
          <mxGeometry x="140" y="410" width="180" height="220" as="geometry" />
        </mxCell>
        <mxCell id="yp2vRg8m_nEioMY8WrKE-6" value="" style="rounded=1;whiteSpace=wrap;html=1;" parent="1" vertex="1">
          <mxGeometry x="20" y="480" width="410" height="60" as="geometry" />
        </mxCell>
        <mxCell id="yp2vRg8m_nEioMY8WrKE-7" value="" style="rounded=1;whiteSpace=wrap;html=1;fillColor=#fff2cc;strokeColor=#d6b656;" parent="1" vertex="1">
          <mxGeometry x="140" y="480" width="180" height="60" as="geometry" />
        </mxCell>
        <mxCell id="yp2vRg8m_nEioMY8WrKE-8" value="&lt;font style=&quot;font-size: 11px&quot;&gt;底部的ScrollView&lt;/font&gt;" style="text;html=1;strokeColor=none;fillColor=none;align=center;verticalAlign=middle;whiteSpace=wrap;rounded=0;" parent="1" vertex="1">
          <mxGeometry x="20" y="480" width="100" height="20" as="geometry" />
        </mxCell>
        <mxCell id="yp2vRg8m_nEioMY8WrKE-10" value="波形View" style="text;html=1;strokeColor=none;fillColor=none;align=center;verticalAlign=middle;whiteSpace=wrap;rounded=0;" parent="1" vertex="1">
          <mxGeometry x="140" y="480" width="80" height="20" as="geometry" />
        </mxCell>
        <mxCell id="yp2vRg8m_nEioMY8WrKE-11" value="手机屏幕" style="text;html=1;strokeColor=none;fillColor=none;align=center;verticalAlign=middle;whiteSpace=wrap;rounded=0;" parent="1" vertex="1">
          <mxGeometry x="145" y="420" width="70" height="20" as="geometry" />
        </mxCell>
        <mxCell id="yp2vRg8m_nEioMY8WrKE-12" value="" style="shape=cylinder3;whiteSpace=wrap;html=1;boundedLbl=1;backgroundOutline=1;size=15;gradientColor=none;" parent="1" vertex="1">
          <mxGeometry x="550" y="975" width="60" height="80" as="geometry" />
        </mxCell>
        <mxCell id="yp2vRg8m_nEioMY8WrKE-13" value="Data" style="text;html=1;strokeColor=none;fillColor=none;align=center;verticalAlign=middle;whiteSpace=wrap;rounded=0;" parent="1" vertex="1">
          <mxGeometry x="560" y="1015" width="40" height="20" as="geometry" />
        </mxCell>
        <mxCell id="yp2vRg8m_nEioMY8WrKE-17" value="" style="endArrow=none;dashed=1;html=1;dashPattern=1 3;strokeWidth=2;exitX=0;exitY=0.5;exitDx=0;exitDy=0;entryX=1;entryY=0.5;entryDx=0;entryDy=0;strokeColor=#C9C9C9;" parent="1" source="yp2vRg8m_nEioMY8WrKE-7" target="yp2vRg8m_nEioMY8WrKE-7" edge="1">
          <mxGeometry width="50" height="50" relative="1" as="geometry">
            <mxPoint x="145" y="509.58" as="sourcePoint" />
            <mxPoint x="245" y="509.58" as="targetPoint" />
          </mxGeometry>
        </mxCell>
        <mxCell id="yp2vRg8m_nEioMY8WrKE-19" style="edgeStyle=none;rounded=0;orthogonalLoop=1;jettySize=auto;html=1;entryX=0.5;entryY=0;entryDx=0;entryDy=0;strokeColor=#C9C9C9;startArrow=classic;startFill=1;endArrow=none;endFill=0;exitX=0.5;exitY=1;exitDx=0;exitDy=0;" parent="1" source="yp2vRg8m_nEioMY8WrKE-18" target="yp2vRg8m_nEioMY8WrKE-7" edge="1">
          <mxGeometry relative="1" as="geometry">
            <mxPoint x="179.375" y="390" as="sourcePoint" />
          </mxGeometry>
        </mxCell>
        <mxCell id="yp2vRg8m_nEioMY8WrKE-18" value="&lt;h1&gt;&lt;font style=&quot;font-size: 18px&quot;&gt;波形View绘制逻辑&lt;/font&gt;&lt;/h1&gt;&lt;div style=&quot;font-size: 11px&quot;&gt;&lt;ol&gt;&lt;li&gt;&lt;span style=&quot;font-size: 11px&quot;&gt;&lt;font style=&quot;font-size: 11px&quot;&gt;重要属性 centerTime, timeLength&lt;/font&gt;&lt;/span&gt;&lt;/li&gt;&lt;li&gt;&lt;span style=&quot;font-size: 11px&quot;&gt;&lt;font style=&quot;font-size: 11px&quot;&gt;centerTime是跟当前的播放进度/录音进度实时保持一致&lt;/font&gt;&lt;/span&gt;&lt;/li&gt;&lt;li&gt;&lt;span style=&quot;font-size: 11px&quot;&gt;&lt;font style=&quot;font-size: 11px&quot;&gt;timeLength是从屏幕宽度&amp;amp;scale计算得来&lt;/font&gt;&lt;/span&gt;&lt;/li&gt;&lt;li&gt;重绘的动作，仅仅依赖于底部ScrollView的滚动、缩放&lt;/li&gt;&lt;/ol&gt;&lt;/div&gt;" style="text;html=1;strokeColor=none;fillColor=none;spacing=5;spacingTop=-20;whiteSpace=wrap;overflow=hidden;rounded=0;" parent="1" vertex="1">
          <mxGeometry x="30" y="240" width="340" height="120" as="geometry" />
        </mxCell>
        <mxCell id="yp2vRg8m_nEioMY8WrKE-20" value="&lt;p style=&quot;line-height: 70%&quot;&gt;&lt;/p&gt;&lt;h1&gt;&lt;font style=&quot;font-size: 18px&quot;&gt;ScrollView缩放、滚动&lt;/font&gt;&lt;/h1&gt;&lt;p&gt;&lt;/p&gt;&lt;ol&gt;&lt;li&gt;缩放、滚动，都发生在这里&lt;/li&gt;&lt;li&gt;录音产生新数据，会引发contentSize变化&lt;/li&gt;&lt;li&gt;回放的时候，contentSize一次性设置好&lt;/li&gt;&lt;li&gt;scale、contentOffsetX、contentSize.width变化，都会同步给Context&lt;/li&gt;&lt;/ol&gt;&lt;p&gt;&lt;/p&gt;&lt;p&gt;&lt;/p&gt;" style="text;html=1;strokeColor=none;fillColor=none;spacing=5;spacingTop=-20;whiteSpace=wrap;overflow=hidden;rounded=0;" parent="1" vertex="1">
          <mxGeometry x="580" y="320" width="430" height="120" as="geometry" />
        </mxCell>
        <mxCell id="yp2vRg8m_nEioMY8WrKE-30" style="edgeStyle=none;rounded=0;orthogonalLoop=1;jettySize=auto;html=1;entryX=0;entryY=0.5;entryDx=0;entryDy=0;startArrow=none;startFill=0;endArrow=classic;endFill=1;strokeColor=#C9C9C9;dashed=1;" parent="1" source="yp2vRg8m_nEioMY8WrKE-21" target="yp2vRg8m_nEioMY8WrKE-22" edge="1">
          <mxGeometry relative="1" as="geometry" />
        </mxCell>
        <mxCell id="yp2vRg8m_nEioMY8WrKE-21" value="Context" style="shape=cube;whiteSpace=wrap;html=1;boundedLbl=1;backgroundOutline=1;darkOpacity=0.05;darkOpacity2=0.1;gradientColor=none;" parent="1" vertex="1">
          <mxGeometry x="520" y="610" width="120" height="80" as="geometry" />
        </mxCell>
        <mxCell id="yp2vRg8m_nEioMY8WrKE-22" value="&lt;p style=&quot;line-height: 70%&quot;&gt;&lt;/p&gt;&lt;h1&gt;&lt;font style=&quot;font-size: 18px&quot;&gt;Context状态存储&lt;/font&gt;&lt;/h1&gt;&lt;p&gt;&lt;/p&gt;&lt;ol&gt;&lt;li&gt;&lt;span&gt;ScrollView的scale, contentOffsetX, contentSize.width&lt;/span&gt;&lt;/li&gt;&lt;li&gt;波形View的关键值，也在这里 centerTime, timeLength&lt;/li&gt;&lt;li&gt;&lt;span&gt;录音当前时间点/回放的时间点 currentPlayTime&lt;/span&gt;&lt;/li&gt;&lt;li&gt;上面所有值发生变化，都需要通知波形view重绘&lt;/li&gt;&lt;li&gt;数据疏密因子factor: ScreenWidth / 4pt = 40&lt;/li&gt;&lt;/ol&gt;&lt;p&gt;&lt;/p&gt;&lt;p&gt;&lt;/p&gt;" style="text;html=1;strokeColor=none;fillColor=none;spacing=5;spacingTop=-20;whiteSpace=wrap;overflow=hidden;rounded=0;" parent="1" vertex="1">
          <mxGeometry x="690" y="490" width="400" height="130" as="geometry" />
        </mxCell>
        <mxCell id="yp2vRg8m_nEioMY8WrKE-53" style="edgeStyle=none;rounded=0;orthogonalLoop=1;jettySize=auto;html=1;entryX=0;entryY=0.5;entryDx=0;entryDy=0;dashed=1;startArrow=none;startFill=0;endArrow=classic;endFill=1;strokeColor=#C9C9C9;" parent="1" source="yp2vRg8m_nEioMY8WrKE-23" target="yp2vRg8m_nEioMY8WrKE-39" edge="1">
          <mxGeometry relative="1" as="geometry" />
        </mxCell>
        <mxCell id="yp2vRg8m_nEioMY8WrKE-23" value="&amp;nbsp; &amp;nbsp;播放/录音 SDK" style="html=1;whiteSpace=wrap;container=1;recursiveResize=0;collapsible=0;gradientColor=none;" parent="1" vertex="1">
          <mxGeometry x="740" y="785" width="160" height="70" as="geometry" />
        </mxCell>
        <mxCell id="yp2vRg8m_nEioMY8WrKE-24" value="" style="triangle;html=1;whiteSpace=wrap;" parent="yp2vRg8m_nEioMY8WrKE-23" vertex="1">
          <mxGeometry x="20" y="20" width="20" height="30" as="geometry" />
        </mxCell>
        <mxCell id="yp2vRg8m_nEioMY8WrKE-28" style="edgeStyle=none;rounded=0;orthogonalLoop=1;jettySize=auto;html=1;strokeColor=#C9C9C9;exitX=1;exitY=0.5;exitDx=0;exitDy=0;dashed=1;entryX=0;entryY=0.5;entryDx=0;entryDy=0;" parent="1" source="yp2vRg8m_nEioMY8WrKE-6" target="yp2vRg8m_nEioMY8WrKE-20" edge="1">
          <mxGeometry relative="1" as="geometry">
            <mxPoint x="-50" y="540" as="sourcePoint" />
            <mxPoint x="580" y="470" as="targetPoint" />
          </mxGeometry>
        </mxCell>
        <mxCell id="yp2vRg8m_nEioMY8WrKE-29" value="" style="shape=arrow;endArrow=classic;html=1;strokeColor=#C9C9C9;exitX=1;exitY=1;exitDx=0;exitDy=0;" parent="1" source="yp2vRg8m_nEioMY8WrKE-6" target="yp2vRg8m_nEioMY8WrKE-21" edge="1">
          <mxGeometry width="50" height="50" relative="1" as="geometry">
            <mxPoint x="490" y="590" as="sourcePoint" />
            <mxPoint x="540" y="540" as="targetPoint" />
          </mxGeometry>
        </mxCell>
        <mxCell id="yp2vRg8m_nEioMY8WrKE-31" value="" style="shape=arrow;endArrow=classic;html=1;strokeColor=#C9C9C9;entryX=1;entryY=1;entryDx=0;entryDy=0;exitX=0;exitY=0;exitDx=0;exitDy=30;exitPerimeter=0;" parent="1" source="yp2vRg8m_nEioMY8WrKE-21" target="yp2vRg8m_nEioMY8WrKE-7" edge="1">
          <mxGeometry width="50" height="50" relative="1" as="geometry">
            <mxPoint x="510" y="630" as="sourcePoint" />
            <mxPoint x="440" y="240" as="targetPoint" />
          </mxGeometry>
        </mxCell>
        <mxCell id="yp2vRg8m_nEioMY8WrKE-34" style="edgeStyle=none;rounded=0;orthogonalLoop=1;jettySize=auto;html=1;entryX=0;entryY=0.5;entryDx=0;entryDy=0;entryPerimeter=0;dashed=1;startArrow=none;startFill=0;endArrow=classic;endFill=1;strokeColor=#C9C9C9;exitX=1;exitY=0.5;exitDx=0;exitDy=0;" parent="1" source="yp2vRg8m_nEioMY8WrKE-33" target="yp2vRg8m_nEioMY8WrKE-12" edge="1">
          <mxGeometry relative="1" as="geometry" />
        </mxCell>
        <mxCell id="yp2vRg8m_nEioMY8WrKE-33" value="&lt;p style=&quot;line-height: 70%&quot;&gt;&lt;/p&gt;&lt;h1&gt;&lt;span style=&quot;font-size: 18px&quot;&gt;DataProvider&lt;/span&gt;&lt;/h1&gt;&lt;p&gt;&lt;/p&gt;&lt;ol&gt;&lt;li&gt;这里存储着录音过程中/文件中读取的原始波形数据&lt;/li&gt;&lt;li&gt;可以根据factor +&amp;nbsp;&lt;span style=&quot;font-size: 11px ; text-align: center ; background-color: rgb(255 , 255 , 255)&quot;&gt;centerTime + timeLength&lt;/span&gt;来读取波形图需要的一段数据&lt;/li&gt;&lt;li&gt;疏密: 根据factor来做数据离散值获取&lt;/li&gt;&lt;/ol&gt;&lt;p&gt;&lt;/p&gt;&lt;p&gt;&lt;/p&gt;" style="text;html=1;strokeColor=none;fillColor=none;spacing=5;spacingTop=-20;whiteSpace=wrap;overflow=hidden;rounded=0;" parent="1" vertex="1">
          <mxGeometry x="140" y="960" width="320" height="110" as="geometry" />
        </mxCell>
        <mxCell id="yp2vRg8m_nEioMY8WrKE-35" value="" style="shape=flexArrow;endArrow=classic;html=1;dashed=1;strokeColor=#C9C9C9;exitX=0;exitY=0.5;exitDx=0;exitDy=0;entryX=1;entryY=0.5;entryDx=0;entryDy=0;entryPerimeter=0;" parent="1" source="yp2vRg8m_nEioMY8WrKE-23" target="yp2vRg8m_nEioMY8WrKE-12" edge="1">
          <mxGeometry width="50" height="50" relative="1" as="geometry">
            <mxPoint x="660" y="960" as="sourcePoint" />
            <mxPoint x="710" y="910" as="targetPoint" />
          </mxGeometry>
        </mxCell>
        <mxCell id="yp2vRg8m_nEioMY8WrKE-36" value="数据存储到这里" style="edgeLabel;html=1;align=center;verticalAlign=middle;resizable=0;points=[];" parent="yp2vRg8m_nEioMY8WrKE-35" vertex="1" connectable="0">
          <mxGeometry x="0.0286" y="3" relative="1" as="geometry">
            <mxPoint as="offset" />
          </mxGeometry>
        </mxCell>
        <mxCell id="yp2vRg8m_nEioMY8WrKE-39" value="&lt;p style=&quot;line-height: 70%&quot;&gt;&lt;/p&gt;&lt;h1&gt;&lt;span style=&quot;font-size: 18px&quot;&gt;播放/录音SDK&lt;/span&gt;&lt;/h1&gt;&lt;p&gt;&lt;/p&gt;&lt;ol&gt;&lt;li&gt;录音过程中，是实时产生数据&lt;/li&gt;&lt;li&gt;回放的时候，可一次性产生数据&lt;/li&gt;&lt;/ol&gt;&lt;p&gt;&lt;/p&gt;&lt;p&gt;&lt;/p&gt;" style="text;html=1;strokeColor=none;fillColor=none;spacing=5;spacingTop=-20;whiteSpace=wrap;overflow=hidden;rounded=0;" parent="1" vertex="1">
          <mxGeometry x="970" y="777.5" width="350" height="85" as="geometry" />
        </mxCell>
        <mxCell id="yp2vRg8m_nEioMY8WrKE-48" style="edgeStyle=none;rounded=0;orthogonalLoop=1;jettySize=auto;html=1;dashed=1;startArrow=none;startFill=0;endArrow=classic;endFill=1;strokeColor=#C9C9C9;entryX=1;entryY=0.5;entryDx=0;entryDy=0;exitX=0;exitY=0.5;exitDx=0;exitDy=0;" parent="1" source="yp2vRg8m_nEioMY8WrKE-44" target="yp2vRg8m_nEioMY8WrKE-47" edge="1">
          <mxGeometry relative="1" as="geometry" />
        </mxCell>
        <mxCell id="yp2vRg8m_nEioMY8WrKE-44" value="" style="rounded=1;whiteSpace=wrap;html=1;gradientColor=none;" parent="1" vertex="1">
          <mxGeometry x="175" y="790" width="250" height="60" as="geometry" />
        </mxCell>
        <mxCell id="yp2vRg8m_nEioMY8WrKE-45" value="" style="shape=flexArrow;endArrow=classic;startArrow=classic;html=1;dashed=1;strokeColor=#C9C9C9;" parent="1" edge="1">
          <mxGeometry width="50" height="50" relative="1" as="geometry">
            <mxPoint x="217.5" y="820" as="sourcePoint" />
            <mxPoint x="382.5" y="820" as="targetPoint" />
          </mxGeometry>
        </mxCell>
        <mxCell id="yp2vRg8m_nEioMY8WrKE-46" value="" style="shape=mxgraph.bpmn.shape;html=1;verticalLabelPosition=bottom;labelBackgroundColor=#ffffff;verticalAlign=top;align=center;perimeter=ellipsePerimeter;outlineConnect=0;outline=eventNonint;symbol=timer;gradientColor=none;" parent="1" vertex="1">
          <mxGeometry x="175" y="790" width="30" height="30" as="geometry" />
        </mxCell>
        <mxCell id="yp2vRg8m_nEioMY8WrKE-47" value="&lt;p style=&quot;line-height: 70%&quot;&gt;&lt;/p&gt;&lt;h1&gt;&lt;span style=&quot;font-size: 18px&quot;&gt;TimeRunRange&lt;/span&gt;&lt;/h1&gt;&lt;p&gt;&lt;/p&gt;&lt;ol&gt;&lt;li&gt;这里主要做时间偏移处理&lt;/li&gt;&lt;li&gt;NSDisplayLink的方式来实时的对时间进行累加&lt;/li&gt;&lt;li&gt;播放/录音SDK的暂停/继续，会对时间的累加有影响&lt;/li&gt;&lt;li&gt;主要记录一个值: CurrentPlayTime&lt;/li&gt;&lt;li&gt;并将该值同步给Context&lt;/li&gt;&lt;/ol&gt;&lt;p&gt;&lt;/p&gt;&lt;p&gt;&lt;/p&gt;" style="text;html=1;strokeColor=none;fillColor=none;spacing=5;spacingTop=-20;whiteSpace=wrap;overflow=hidden;rounded=0;" parent="1" vertex="1">
          <mxGeometry x="-230" y="755" width="330" height="130" as="geometry" />
        </mxCell>
        <mxCell id="yp2vRg8m_nEioMY8WrKE-49" value="" style="shape=flexArrow;endArrow=classic;html=1;dashed=1;strokeColor=#C9C9C9;exitX=0;exitY=0.5;exitDx=0;exitDy=0;entryX=1;entryY=0.5;entryDx=0;entryDy=0;" parent="1" source="yp2vRg8m_nEioMY8WrKE-23" target="yp2vRg8m_nEioMY8WrKE-44" edge="1">
          <mxGeometry width="50" height="50" relative="1" as="geometry">
            <mxPoint x="580" y="780" as="sourcePoint" />
            <mxPoint x="430" y="980" as="targetPoint" />
          </mxGeometry>
        </mxCell>
        <mxCell id="yp2vRg8m_nEioMY8WrKE-50" value="会影响TimeRunRange的值" style="edgeLabel;html=1;align=center;verticalAlign=middle;resizable=0;points=[];" parent="yp2vRg8m_nEioMY8WrKE-49" vertex="1" connectable="0">
          <mxGeometry x="0.0286" y="3" relative="1" as="geometry">
            <mxPoint as="offset" />
          </mxGeometry>
        </mxCell>
        <mxCell id="yp2vRg8m_nEioMY8WrKE-51" value="" style="shape=flexArrow;endArrow=classic;html=1;dashed=1;strokeColor=#C9C9C9;exitX=0.5;exitY=0;exitDx=0;exitDy=0;entryX=0;entryY=0;entryDx=0;entryDy=60;entryPerimeter=0;" parent="1" source="yp2vRg8m_nEioMY8WrKE-44" target="yp2vRg8m_nEioMY8WrKE-21" edge="1">
          <mxGeometry width="50" height="50" relative="1" as="geometry">
            <mxPoint x="470" y="720" as="sourcePoint" />
            <mxPoint x="240" y="720" as="targetPoint" />
          </mxGeometry>
        </mxCell>
        <mxCell id="yp2vRg8m_nEioMY8WrKE-52" value="通知Context，数据更新，需要让波形view重绘" style="edgeLabel;html=1;align=center;verticalAlign=middle;resizable=0;points=[];" parent="yp2vRg8m_nEioMY8WrKE-51" vertex="1" connectable="0">
          <mxGeometry x="0.0286" y="3" relative="1" as="geometry">
            <mxPoint as="offset" />
          </mxGeometry>
        </mxCell>
        <mxCell id="yp2vRg8m_nEioMY8WrKE-54" value="" style="endArrow=classic;html=1;strokeColor=#C9C9C9;" parent="1" source="yp2vRg8m_nEioMY8WrKE-21" target="yp2vRg8m_nEioMY8WrKE-12" edge="1">
          <mxGeometry width="50" height="50" relative="1" as="geometry">
            <mxPoint x="450" y="940" as="sourcePoint" />
            <mxPoint x="500" y="890" as="targetPoint" />
          </mxGeometry>
        </mxCell>
        <mxCell id="yp2vRg8m_nEioMY8WrKE-55" value="任何时刻，都可以向DataProvider来&lt;br&gt;取波形view锁需要的值&lt;br&gt;参数是: centerTime + centerTime" style="edgeLabel;html=1;align=center;verticalAlign=middle;resizable=0;points=[];" parent="yp2vRg8m_nEioMY8WrKE-54" vertex="1" connectable="0">
          <mxGeometry x="0.5311" y="2" relative="1" as="geometry">
            <mxPoint as="offset" />
          </mxGeometry>
        </mxCell>
        <mxCell id="du_RMS1LaNvwryW8dqtz-1" value="参数: DataArray&lt;br&gt;&amp;amp;&amp;amp; pointsDataArray" style="text;html=1;align=center;verticalAlign=middle;resizable=0;points=[];autosize=1;" vertex="1" parent="1">
          <mxGeometry x="350" y="580" width="120" height="30" as="geometry" />
        </mxCell>
      </root>
    </mxGraphModel>
  </diagram>
</mxfile>
